<svg height="512" viewBox="0 0 64 64" width="512" xmlns="http://www.w3.org/2000/svg"><g id="video_game_controller-gamepad-game_controller-controller-gaming_controller" data-name="video game controller-gamepad-game controller-controller-gaming controller"><path d="m61 31v20a10 10 0 0 1 -20 0v-4h-18v4a10 10 0 0 1 -20 0v-20a10 10 0 0 1 10-10h38a10 10 0 0 1 10 10z" fill="#c6c5ca"/><circle cx="51" cy="51" fill="#ff3051" r="6"/><circle cx="53" cy="34" fill="#9cdd05" r="2"/><circle cx="51" cy="51" fill="#fee9ab" r="2"/><circle cx="48" cy="29" fill="#ff3051" r="2"/><circle cx="48" cy="39" fill="#2488ff" r="2"/><path d="m41 17h8v4h-8z" fill="#b39a7c"/><circle cx="43" cy="34" fill="#ffcd00" r="2"/><path d="m23 25h18v4h-18z" fill="#46f8ff"/><path d="m27 39h10v4h-10z" fill="#46f8ff"/><path d="m28 17h8v4h-8z" fill="#acabb1"/><path d="m34 13v4h-4v-4h2z" fill="#787680"/><path d="m14 17h8v4h-8z" fill="#b39a7c"/><path d="m19 31v4h-4v4h-4v-4h-4v-4h4v-4h4v4z" fill="#2488ff"/><circle cx="13" cy="51" fill="#ff3051" r="6"/><circle cx="13" cy="51" fill="#fee9ab" r="2"/><path d="m61 31v20a10 10 0 0 1 -10 10 9.846 9.846 0 0 1 -2.5-.32 10 10 0 0 0 7.5-9.68v-20a10 10 0 0 0 -10-10h5a10 10 0 0 1 10 10z" fill="#acabb1"/><path d="m57 51a6 6 0 0 1 -6 6 5.8 5.8 0 0 1 -2-.35 5.99 5.99 0 0 0 0-11.3 5.8 5.8 0 0 1 2-.35 6 6 0 0 1 6 6z" fill="#cd2a00"/><path d="m53 51a2 2 0 0 1 -3 1.73 2 2 0 0 0 0-3.46 2 2 0 0 1 3 1.73z" fill="#ffde55"/><path d="m19 51a6 6 0 0 1 -6 6 5.8 5.8 0 0 1 -2-.35 5.99 5.99 0 0 0 0-11.3 5.8 5.8 0 0 1 2-.35 6 6 0 0 1 6 6z" fill="#cd2a00"/><path d="m15 51a2 2 0 0 1 -3 1.73 2 2 0 0 0 0-3.46 2 2 0 0 1 3 1.73z" fill="#ffde55"/><path d="m19 31v4h-4v4h-2v-12h2v4z" fill="#005ece"/><path d="m5 4h57v-2h-57a3.009 3.009 0 0 0 -3 3v3a3.009 3.009 0 0 0 3 3h26v1h-1a1 1 0 0 0 -1 1v3h-1a1 1 0 0 0 -1 1v3h-4v-3a1 1 0 0 0 -1-1h-8a1 1 0 0 0 -1 1v3a11.007 11.007 0 0 0 -11 11v20a11 11 0 0 0 22 0v-3h16v3a11 11 0 0 0 22 0v-20a11.007 11.007 0 0 0 -11-11h-1v-3a1 1 0 0 0 -1-1h-8a1 1 0 0 0 -1 1v3h-3v-3a1 1 0 0 0 -1-1h-1v-3a1 1 0 0 0 -1-1h-1v-2a1 1 0 0 0 -1-1h-27a1 1 0 0 1 -1-1v-3a1 1 0 0 1 1-1zm10 14h6v2h-6zm27 0h6v2h-6zm9 4a9.014 9.014 0 0 1 9 9v20a9 9 0 0 1 -18 0v-4a1 1 0 0 0 -1-1h-18a1 1 0 0 0 -1 1v4a9 9 0 0 1 -18 0v-20a9.014 9.014 0 0 1 9-9zm-16-4v2h-6v-2zm-2-4v2h-2v-2z"/><path d="m13 44a7 7 0 1 0 7 7 7.008 7.008 0 0 0 -7-7zm0 12a5 5 0 1 1 5-5 5.006 5.006 0 0 1 -5 5z"/><path d="m51 44a7 7 0 1 0 7 7 7.008 7.008 0 0 0 -7-7zm0 12a5 5 0 1 1 5-5 5.006 5.006 0 0 1 -5 5z"/><path d="m13 48a3 3 0 1 0 3 3 3 3 0 0 0 -3-3zm0 4a1 1 0 1 1 1-1 1 1 0 0 1 -1 1z"/><path d="m51 48a3 3 0 1 0 3 3 3 3 0 0 0 -3-3zm0 4a1 1 0 1 1 1-1 1 1 0 0 1 -1 1z"/><path d="m19 30h-3v-3a1 1 0 0 0 -1-1h-4a1 1 0 0 0 -1 1v3h-3a1 1 0 0 0 -1 1v4a1 1 0 0 0 1 1h3v3a1 1 0 0 0 1 1h4a1 1 0 0 0 1-1v-3h3a1 1 0 0 0 1-1v-4a1 1 0 0 0 -1-1zm-1 4h-3a1 1 0 0 0 -1 1v3h-2v-3a1 1 0 0 0 -1-1h-3v-2h3a1 1 0 0 0 1-1v-3h2v3a1 1 0 0 0 1 1h3z"/><path d="m45 29a3 3 0 1 0 3-3 3 3 0 0 0 -3 3zm4 0a1 1 0 1 1 -1-1 1 1 0 0 1 1 1z"/><path d="m50 34a3 3 0 1 0 3-3 3 3 0 0 0 -3 3zm3-1a1 1 0 1 1 -1 1 1 1 0 0 1 1-1z"/><path d="m46 34a3 3 0 1 0 -3 3 3 3 0 0 0 3-3zm-3 1a1 1 0 1 1 1-1 1 1 0 0 1 -1 1z"/><path d="m48 42a3 3 0 1 0 -3-3 3 3 0 0 0 3 3zm0-4a1 1 0 1 1 -1 1 1 1 0 0 1 1-1z"/><path d="m37 38h-10a1 1 0 0 0 -1 1v4a1 1 0 0 0 1 1h10a1 1 0 0 0 1-1v-4a1 1 0 0 0 -1-1zm-1 4h-8v-2h8z"/><path d="m42 29v-4a1 1 0 0 0 -1-1h-18a1 1 0 0 0 -1 1v4a1 1 0 0 0 1 1h18a1 1 0 0 0 1-1zm-2-1h-16v-2h16z"/></g></svg>